HIERARCHY
ROOT Hips
{
  OFFSET 57.8838 95.319 338.509
  CHANNELS 6 Xposition Yposition Zposition Zrotation Xrotation Yrotation
  JOINT LeftUpLeg
  {
    OFFSET 8.64259 1.95398 -2.38835
    CHANNELS 3 Zrotation Xrotation Yrotation
    JOINT LeftLeg
    {
      OFFSET 43.7702 0 0
      CHANNELS 3 Zrotation Xrotation Yrotation
      JOINT LeftFoot
      {
        OFFSET 40.6238 0 0
        CHANNELS 3 Zrotation Xrotation Yrotation
        JOINT LeftToeBase
        {
          OFFSET 12.7242 0 0
          CHANNELS 3 Zrotation Xrotation Yrotation
          End Site
          {
            OFFSET 0 0 0
          }
        }
      }
    }
  }
  JOINT RightUpLeg
  {
    OFFSET -8.2249 1.95398 -2.59336
    CHANNELS 3 Zrotation Xrotation Yrotation
    JOINT RightLeg
    {
      OFFSET 43.5653 0 0
      CHANNELS 3 Zrotation Xrotation Yrotation
      JOINT RightFoot
      {
        OFFSET 40.6238 0 0
        CHANNELS 3 Zrotation Xrotation Yrotation
        JOINT RightToeBase
        {
          OFFSET 12.7242 0 0
          CHANNELS 3 Zrotation Xrotation Yrotation
          End Site
          {
            OFFSET 0 0 0
          }
        }
      }
    }
  }
  JOINT Spine
  {
    OFFSET 0.165834 0.87714 6.61349
    CHANNELS 3 Zrotation Xrotation Yrotation
    JOINT Spine1
    {
      OFFSET 7.38963 1.71661e-005 0
      CHANNELS 3 Zrotation Xrotation Yrotation
      JOINT Spine2
      {
        OFFSET 11.9445 1.14441e-005 0
        CHANNELS 3 Zrotation Xrotation Yrotation
        JOINT Spine3
        {
          OFFSET 14.7254 4.19617e-005 0
          CHANNELS 3 Zrotation Xrotation Yrotation
          JOINT Spine4
          {
            OFFSET 10.9679 0 0
            CHANNELS 3 Zrotation Xrotation Yrotation
            JOINT RightShoulder
            {
              OFFSET 2.46616 -1.6653 3.69651
              CHANNELS 3 Zrotation Xrotation Yrotation
              JOINT RightArm
              {
                OFFSET 13.0012 0 0
                CHANNELS 3 Zrotation Xrotation Yrotation
                JOINT RightForeArm
                {
                  OFFSET 28.7848 1.62311e-005 0
                  CHANNELS 3 Zrotation Xrotation Yrotation
                  JOINT RightHand
                  {
                    OFFSET 26.5688 1.62095e-005 0
                    CHANNELS 3 Zrotation Xrotation Yrotation
                    End Site
                    {
                      OFFSET 0 0 0
                    }
                  }
                }
              }
            }
            JOINT LeftShoulder
            {
              OFFSET 2.38034 -1.29275 -3.7523
              CHANNELS 3 Zrotation Xrotation Yrotation
              JOINT LeftArm
              {
                OFFSET 16.3182 6.07031e-005 0
                CHANNELS 3 Zrotation Xrotation Yrotation
                JOINT LeftForeArm
                {
                  OFFSET 27.0901 0 0
                  CHANNELS 3 Zrotation Xrotation Yrotation
                  JOINT LeftHand
                  {
                    OFFSET 24.5451 1.51738e-005 0
                    CHANNELS 3 Zrotation Xrotation Yrotation
                    End Site
                    {
                      OFFSET 0 0 0
                    }
                  }
                }
              }
            }
            JOINT Neck
            {
              OFFSET 5.0226 -0.0266342 0
              CHANNELS 3 Zrotation Xrotation Yrotation
              JOINT Head
              {
                OFFSET 6.69364 2.86102e-005 0
                CHANNELS 3 Zrotation Xrotation Yrotation
                End Site
                {
                  OFFSET 0 0 0
                }
              }
            }
          }
        }
      }
    }
  }
}
MOTION
Frames:	13
Frame Time:	0.0416667
2410.09 103.246 288.687 -5.99193 -8.94788 -91.5731 -177.39 17.238 151.458 -6.43546 12.6169 -2.58895 37.0075 -46.2817 -78.012 50.3339 3.50496 -36.7421 170.433 4.3263 23.1427 -7.17142 -12.8401 2.27151 62.5034 52.7102 72.435 32.1875 -2.75489 69.5379 -0.450034 7.06494 -90.309 12.7416 -1.04154 -0.494877 1.07096 -1.0623 -0.448532 -21.4658 -0.844658 -0.785021 -1.45316 -0.844661 -0.785007 102.724 -7.82887 -80.454 12.4601 54.6593 -50.0796 -26.4777 14.2272 -109.316 -20.4873 0.0145529 -5.29683 -77.7027 -33.2681 97.2441 -9.60805 -55.5077 -64.3009 22.5138 -9.77125 -119.298 16.3456 1.04295 2.47491 28.1522 0.8171 10.914 11.3094 -3.17706 1.36355 
2409.72 103.166 288.683 -5.67425 -8.40352 -91.8525 -177.157 16.9116 151.263 -6.45163 11.8561 -2.67366 37.6401 -46.3605 -77.6617 46.1469 2.35122 -44.6338 170.778 5.16275 22.9033 -7.08724 -14.3523 2.21813 64.0774 52.6423 71.0005 32.7049 -2.9422 68.8116 -0.370482 6.87627 -90.2586 13.1198 -0.859752 -0.410797 1.44908 -0.876998 -0.372563 -21.0872 -0.696549 -0.650184 -1.07453 -0.696541 -0.650187 102.482 -7.28295 -81.2169 10.0024 52.2259 -46.8141 -30.4303 16.048 -108.158 -19.4964 -0.352867 -3.15996 -78.2465 -32.9166 96.218 -8.99275 -55.2936 -62.9756 23.5742 -9.86806 -118.968 14.5253 1.03305 3.16463 26.4733 0.710758 10.9613 12.206 -3.1756 1.02648 
2410.07 103.136 288.665 -5.70181 -8.14896 -91.8757 -176.955 16.7141 151.227 -6.44925 11.8365 -2.696 37.585 -46.3955 -77.7333 46.7171 2.45535 -43.8398 170.938 5.31939 22.8544 -7.0812 -14.6291 2.209 63.9797 52.697 70.9942 32.2969 -2.80237 68.9128 -0.363651 6.89146 -90.228 13.0898 -0.831581 -0.35375 1.41909 -0.846328 -0.316809 -21.1172 -0.687052 -0.5873 -1.1046 -0.687041 -0.587316 102.428 -7.49252 -81.392 9.53585 52.3979 -46.5151 -30.446 16.1544 -108.151 -20.4798 -0.425457 -2.81498 -78.2083 -32.3694 96.281 -9.32421 -55.5143 -62.8358 24.461 -10.2345 -119.045 14.6837 1.29215 4.83313 26.7137 0.87219 10.7866 13.7728 -3.03247 0.487302 
2410.01 103.177 288.887 -5.63225 -7.66466 -91.8371 -176.63 16.4299 151.309 -6.44709 11.5863 -2.74711 37.7422 -46.3967 -77.4376 46.7297 2.444 -43.9506 171.339 5.65911 22.8473 -7.11021 -14.7778 2.16771 64.0095 52.6549 71.0483 32.2378 -2.78468 68.7945 -0.36565 6.92381 -90.201 13.0255 -0.822304 -0.301342 1.35477 -0.834787 -0.264906 -21.1816 -0.688143 -0.534561 -1.16898 -0.68814 -0.534567 102.473 -7.14396 -81.2418 10.9525 51.7084 -47.3834 -31.6576 16.9141 -107.846 -20.2094 -0.543897 -2.09945 -77.9962 -31.8147 96.6779 -9.72974 -55.7393 -62.9024 24.5415 -10.3731 -119.065 14.5505 1.2575 4.67298 27.0342 0.987813 10.4563 13.9582 -2.81174 0.614286 
2409.77 103.058 288.808 -5.58416 -7.08601 -91.8149 -176.28 16.1476 151.431 -6.43162 11.3381 -2.80829 38.0788 -46.4974 -77.2571 46.6606 2.44494 -43.9409 171.722 6.07238 22.9188 -7.12404 -15.002 2.13099 63.6172 52.6631 71.4491 32.1229 -2.74598 68.7866 -0.363461 6.96609 -90.1544 12.9408 -0.795916 -0.21221 1.27004 -0.804436 -0.176971 -21.2665 -0.692789 -0.4416 -1.25388 -0.692791 -0.441587 102.507 -7.15662 -81.1327 12.6401 52.0961 -48.9131 -30.6221 16.2156 -108.072 -19.8085 -0.38322 -2.98547 -77.8059 -31.1925 97.0382 -9.86771 -56.1461 -62.8432 24.7879 -10.5496 -118.945 14.6797 1.36331 5.30736 27.4588 1.11885 10.0546 14.0384 -2.59876 0.453203 
2409.57 103.155 288.79 -5.49489 -6.48029 -91.7422 -175.846 15.8644 151.57 -6.40859 11.2722 -2.88527 38.3416 -46.6605 -76.9887 46.7277 2.47299 -43.673 172.215 6.49534 23.0314 -7.13953 -15.4344 2.08166 63.7112 52.5974 71.3077 32.4168 -2.84309 68.8998 -0.362964 7.00332 -90.1163 12.8669 -0.776349 -0.139052 1.19618 -0.78171 -0.104759 -21.3405 -0.698791 -0.365953 -1.32784 -0.698774 -0.365951 102.504 -6.94019 -81.1385 14.1198 52.1245 -49.9281 -31.1139 16.4162 -107.908 -19.4932 -0.402891 -2.83406 -77.5853 -30.4838 97.4649 -10.1969 -56.4912 -62.8228 24.754 -10.6531 -118.933 14.5196 1.34954 5.31043 27.8453 1.32583 9.60996 13.8716 -2.29005 0.316129 
2409.6 103.301 288.723 -5.49645 -5.93356 -91.6665 -175.432 15.6171 151.665 -6.38154 11.2388 -2.96203 38.442 -46.7663 -76.7786 46.6886 2.47015 -43.6993 172.594 6.81501 23.092 -7.13939 -15.7633 2.03941 63.6811 52.5976 71.3804 32.3057 -2.80725 68.8172 -0.36799 7.06814 -90.0774 12.7376 -0.767824 -0.0637481 1.06685 -0.769864 -0.0298995 -21.4699 -0.713151 -0.291536 -1.45727 -0.713152 -0.291583 102.492 -6.80141 -81.1795 15.8155 52.7446 -51.2663 -30.6758 16.2054 -108.032 -19.8303 -0.398431 -2.89831 -77.3305 -29.6819 97.9678 -10.7805 -56.8528 -62.9916 24.472 -10.7178 -118.994 14.3784 1.28704 4.96601 28.4495 1.56577 9.10694 13.9012 -1.96684 0.00925966 
2409.8 103.187 288.789 -5.50608 -5.45605 -91.602 -175.107 15.3293 151.764 -6.39169 10.7651 -2.98977 38.1087 -46.656 -77.0445 46.7819 2.43915 -43.9971 172.936 7.11746 23.1464 -7.13086 -16.1558 2.02825 63.5791 52.666 71.3933 31.9306 -2.68027 68.8329 -0.375983 7.13794 -90.0377 12.5979 -0.764784 0.0138502 0.927188 -0.763431 0.0474939 -21.6097 -0.733598 -0.216685 -1.59702 -0.733584 -0.216646 102.552 -6.40861 -80.9715 17.5337 52.6587 -52.4881 -31.0586 16.2999 -107.777 -19.0007 -0.398219 -2.79904 -77.0957 -29.0531 98.4408 -11.2504 -57.2654 -63.3361 24.7858 -10.9455 -118.84 14.6048 1.33931 5.18852 28.9815 1.61941 8.70291 14.0717 -1.81735 -0.0953574 
2409.86 102.954 288.66 -5.58228 -5.12026 -91.5221 -174.891 15.0973 151.908 -6.41296 10.2376 -3.01504 38.1851 -46.5279 -77.062 46.7471 2.44353 -43.9532 173.136 7.25788 23.2635 -7.13253 -16.518 1.99869 63.8038 52.5864 71.0439 32.2627 -2.78952 68.9917 -0.398362 7.21326 -89.9998 12.4476 -0.791332 0.0913671 0.776952 -0.786576 0.126091 -21.7601 -0.782229 -0.150708 -1.74744 -0.78222 -0.150724 102.631 -6.09918 -80.7035 20.3412 52.3715 -54.4222 -31.4142 16.4773 -107.834 -19.0171 -0.364566 -3.00934 -76.9035 -28.2472 98.8405 -11.794 -57.7118 -63.3682 24.2001 -10.9523 -118.913 14.8854 1.30307 4.79292 29.5302 1.7068 8.29936 14.2422 -1.64709 -0.283535 
2409.97 103.377 288.355 -5.66619 -5.01229 -91.2879 -174.66 15.1674 152.07 -6.36831 10.4882 -3.03953 37.8807 -46.5798 -76.9946 46.9974 2.49791 -43.4601 173.249 7.15299 23.5316 -7.12929 -16.6697 2.00061 63.918 52.6103 70.9055 32.313 -2.81073 68.7598 -0.42664 7.3105 -89.98 12.2536 -0.838496 0.134016 0.5829 -0.83177 0.170789 -21.9544 -0.839997 -0.124214 -1.94175 -0.839989 -0.124195 102.727 -5.97137 -80.379 22.0485 52.5792 -55.898 -30.9217 16.3908 -108.116 -20.1692 -0.393843 -2.96278 -76.6362 -27.4951 99.4016 -12.9106 -57.9837 -64.2663 23.9078 -11.0134 -118.928 14.5976 1.18871 4.18993 30.2935 1.86769 7.79345 14.1518 -1.381 -0.488463 
2410.21 103.437 287.91 -5.75083 -5.22138 -91.2962 -174.72 15.2509 152.003 -6.363 10.4564 -3.02198 37.4737 -46.4511 -77.0885 47.274 2.51262 -43.3287 173.128 6.91934 23.5484 -7.14067 -16.4042 1.98658 63.8247 52.5801 71.122 32.41 -2.84316 68.7814 -0.499002 7.39854 -89.9525 12.0782 -0.969475 0.201155 0.407638 -0.959664 0.24362 -22.1304 -0.985101 -0.0995408 -2.11776 -0.985106 -0.0995336 102.83 -5.54593 -80.0173 23.1604 51.9293 -56.6323 -31.7929 17.1104 -107.898 -20.5977 -0.500797 -2.40277 -76.3667 -26.9946 99.9709 -13.8615 -58.2011 -65.1272 24.573 -11.4312 -118.75 14.711 1.3119 4.94475 30.9567 2.02771 7.52951 14.1641 -1.20702 -0.738139 
2410.18 103.509 287.915 -5.84869 -5.64207 -91.4191 -174.923 15.4151 151.865 -6.37067 10.489 -2.9783 37.669 -46.3108 -76.736 47.0066 2.48027 -43.6147 172.832 6.66799 23.4206 -7.12404 -16.4926 2.01582 64.1082 52.6355 70.8014 32.2653 -2.79372 68.8082 -0.581294 7.46571 -89.9131 11.9442 -1.11477 0.29384 0.273719 -1.10075 0.342638 -22.2653 -1.15154 -0.0548232 -2.25264 -1.15153 -0.0548188 102.885 -5.24213 -79.814 25.2905 52.9235 -58.3587 -29.6099 15.9588 -108.534 -20.2424 -0.231 -3.9132 -76.2361 -26.6438 100.255 -14.1897 -58.6513 -65.3923 24.9109 -11.6287 -118.661 14.5118 1.33185 5.19171 31.4619 1.97103 7.48913 14.2211 -1.27479 -0.723538 
2410.06 104.051 287.868 -5.90259 -6.5136 -91.4052 -175.493 15.8706 151.792 -6.39724 10.2063 -2.88147 37.4555 -45.8728 -76.6349 46.8334 2.55714 -42.8777 172.219 6.03761 23.4602 -7.09162 -16.1363 2.11441 64.4198 52.645 70.1506 32.1248 -2.74976 68.6101 -0.678543 7.52591 -89.8972 11.8253 -1.30098 0.343501 0.154903 -1.2846 0.40042 -22.3855 -1.34405 -0.0634575 -2.37283 -1.34407 -0.0634482 102.968 -5.17711 -79.5281 26.1118 52.9056 -59.0487 -30.8911 16.3544 -107.962 -20.4822 -0.425072 -2.82007 -76.1343 -26.3667 100.478 -14.8916 -58.7597 -66.1575 25.0236 -11.7412 -118.608 14.3822 1.31259 5.13526 31.8179 1.95188 7.18563 14.3988 -1.19704 -0.746885 
